<mxfile host="app.diagrams.net" modified="2021-07-20T09:22:32.547Z" agent="5.0 (Macintosh; Intel Mac OS X 10_15_7) AppleWebKit/537.36 (KHTML, like Gecko) Chrome/91.0.4472.164 Safari/537.36" etag="jITdsrWUccYPgC3CSfuz" version="14.9.0" type="github">
  <diagram id="KpCog1KnXHinxvA4Zs0Z" name="第 1 页">
    <mxGraphModel dx="1426" dy="771" grid="1" gridSize="10" guides="1" tooltips="1" connect="1" arrows="1" fold="1" page="1" pageScale="1" pageWidth="827" pageHeight="1169" math="0" shadow="0">
      <root>
        <mxCell id="0" />
        <mxCell id="1" parent="0" />
        <mxCell id="3PVO_DFX2J29AnOnBNdB-1" value="" style="ellipse;whiteSpace=wrap;html=1;" vertex="1" parent="1">
          <mxGeometry x="10" y="210" width="160" height="120" as="geometry" />
        </mxCell>
        <mxCell id="3PVO_DFX2J29AnOnBNdB-2" value="" style="whiteSpace=wrap;html=1;aspect=fixed;" vertex="1" parent="1">
          <mxGeometry x="414" y="240" width="80" height="80" as="geometry" />
        </mxCell>
        <mxCell id="3PVO_DFX2J29AnOnBNdB-3" value="" style="rounded=0;whiteSpace=wrap;html=1;" vertex="1" parent="1">
          <mxGeometry x="414" y="320" width="120" height="60" as="geometry" />
        </mxCell>
        <mxCell id="3PVO_DFX2J29AnOnBNdB-4" value="" style="verticalLabelPosition=bottom;html=1;verticalAlign=top;align=center;shape=mxgraph.floorplan.room;fillColor=#000000;" vertex="1" parent="1">
          <mxGeometry x="360" y="210" width="100" height="100" as="geometry" />
        </mxCell>
      </root>
    </mxGraphModel>
  </diagram>
</mxfile>
